<svg width="53" height="52" viewBox="0 0 53 52" fill="none" xmlns="http://www.w3.org/2000/svg">
<g opacity="0.25">
<path opacity="0.25" d="M26.8862 50.423C40.6933 50.423 51.8862 39.4539 51.8862 25.923C51.8862 12.392 40.6933 1.42297 26.8862 1.42297C13.0791 1.42297 1.88623 12.392 1.88623 25.923C1.88623 39.4539 13.0791 50.423 26.8862 50.423Z" stroke="#33A0FF" stroke-width="2"/>
</g>
<path fill-rule="evenodd" clip-rule="evenodd" d="M29.8224 19.9609C30.4662 19.9616 31.0962 20.1481 31.6366 20.4981C32.177 20.848 32.6049 21.3466 32.8689 21.9338C33.1329 22.521 33.2218 23.172 33.1248 23.8085C33.0279 24.445 32.7492 25.0399 32.3224 25.5219C31.7094 26.2129 26.4824 31.106 26.4824 31.106C26.4824 31.106 21.2444 26.2129 20.6314 25.5109C20.0902 24.9035 19.7925 24.1175 19.7954 23.304C19.8106 22.4272 20.1695 21.5915 20.7949 20.9768C21.4202 20.3622 22.262 20.0178 23.1389 20.0178C24.0158 20.0178 24.8575 20.3622 25.4829 20.9768C26.1083 21.5915 26.4672 22.4272 26.4824 23.304C26.4824 22.8648 26.5689 22.43 26.7369 22.0242C26.905 21.6185 27.1513 21.2499 27.4618 20.9394C27.7724 20.6289 28.141 20.3825 28.5467 20.2145C28.9524 20.0464 29.3873 19.96 29.8264 19.96L29.8224 19.9609ZM29.8264 17.731C28.6201 17.7289 27.4461 18.1203 26.4824 18.846C25.3785 18.0266 24.0105 17.6441 22.6417 17.7722C21.2729 17.9003 19.9997 18.5298 19.0669 19.5398C18.1341 20.5498 17.6075 21.8689 17.5884 23.2435C17.5693 24.6182 18.059 25.9515 18.9634 26.9869C19.5894 27.7049 23.7124 31.565 24.9634 32.731C25.3763 33.1171 25.9205 33.3319 26.4859 33.3319C27.0512 33.3319 27.5954 33.1171 28.0084 32.731C29.2524 31.566 33.3584 27.716 33.9924 26.999C34.7037 26.1954 35.1679 25.2036 35.3292 24.1426C35.4905 23.0817 35.3421 21.9967 34.9017 21.0181C34.4614 20.0394 33.7478 19.2087 32.8467 18.6258C31.9457 18.0429 30.8955 17.7325 29.8224 17.7319L29.8264 17.731Z" fill="#33A0FF"/>
</svg>
