<svg width="52" height="52" viewBox="0 0 52 52" fill="none" xmlns="http://www.w3.org/2000/svg">
<g opacity="0.25">
<path opacity="0.25" d="M26.3862 50.423C39.9172 50.423 50.8862 39.4539 50.8862 25.923C50.8862 12.392 39.9172 1.42297 26.3862 1.42297C12.8553 1.42297 1.88623 12.392 1.88623 25.923C1.88623 39.4539 12.8553 50.423 26.3862 50.423Z" stroke="#33A0FF" stroke-width="2"/>
</g>
<path fill-rule="evenodd" clip-rule="evenodd" d="M32.44 28.8779C32.954 28.8772 33.4519 28.6982 33.8487 28.3714C34.2456 28.0446 34.5167 27.5903 34.616 27.0859L35.731 21.5129C35.7956 21.19 35.7878 20.8567 35.7081 20.537C35.6285 20.2174 35.4791 19.9195 35.2705 19.6646C35.0619 19.4096 34.7995 19.2041 34.502 19.0627C34.2045 18.9213 33.8794 18.8476 33.55 18.8469H22.45V17.7319C22.4497 17.4371 22.3327 17.1543 22.1245 16.9456C21.9163 16.7368 21.6339 16.619 21.339 16.6179H19.124C18.8342 16.6266 18.5592 16.7478 18.3573 16.9559C18.1553 17.1639 18.0424 17.4425 18.0424 17.7324C18.0424 18.0224 18.1553 18.3009 18.3573 18.509C18.5592 18.717 18.8342 18.8382 19.124 18.8469H20.239V29.9919C19.7977 29.99 19.3658 30.119 18.9979 30.3627C18.63 30.6065 18.3428 30.9538 18.1726 31.361C18.0023 31.7681 17.9567 32.2166 18.0416 32.6496C18.1265 33.0826 18.338 33.4808 18.6493 33.7935C18.9606 34.1063 19.3578 34.3195 19.7905 34.4063C20.2231 34.4931 20.6718 34.4496 21.0797 34.2812C21.4876 34.1128 21.8363 33.8271 22.0817 33.4603C22.327 33.0936 22.458 32.6622 22.458 32.2209H30.224C30.2258 32.6596 30.3575 33.088 30.6025 33.4518C30.8475 33.8157 31.1949 34.0989 31.6007 34.2655C32.0065 34.4321 32.4525 34.4749 32.8826 34.3882C33.3126 34.3015 33.7074 34.0893 34.0169 33.7785C34.3265 33.4677 34.5371 33.0721 34.622 32.6417C34.7069 32.2113 34.6624 31.7654 34.4941 31.3603C34.3258 30.9552 34.0413 30.609 33.6764 30.3654C33.3116 30.1219 32.8827 29.9919 32.444 29.9919H22.457V28.8779H32.44ZM33.555 21.0779L32.44 26.6509H22.453V21.0779H33.553H33.555Z" fill="#33A0FF"/>
</svg>
